<svg xmlns="http://www.w3.org/2000/svg" width="500" height="500" viewBox="0 0 500 500" version="1.1"><path d="M 209.500 18.210 C 197.508 19.474, 181.716 23.530, 170.500 28.225 C 160.311 32.490, 146.547 39.881, 147.331 40.665 C 147.570 40.903, 149.505 40.102, 151.632 38.884 C 159.790 34.215, 167.674 30.286, 172 28.732 C 174.475 27.843, 178.518 26.380, 180.984 25.482 C 183.450 24.584, 190.875 22.712, 197.484 21.322 C 207.369 19.243, 212.541 18.768, 226.644 18.647 C 236.074 18.566, 243.274 18.158, 242.644 17.741 C 241.209 16.789, 220.147 17.087, 209.500 18.210 M 245.083 18.356 C 246.191 19.304, 252.043 19.878, 251.491 18.985 C 251.156 18.443, 249.484 18, 247.774 18 C 246.065 18, 244.854 18.160, 245.083 18.356 M 256 20.008 C 257.925 20.480, 259.839 20.535, 260.254 20.129 C 260.669 19.723, 259.094 19.337, 256.754 19.270 L 252.500 19.149 256 20.008 M 262.115 20.388 C 262.453 20.759, 263.578 21.235, 264.615 21.445 C 265.652 21.656, 267.242 22.122, 268.149 22.482 C 269.056 22.842, 270.095 22.656, 270.458 22.068 C 270.821 21.481, 270.473 21, 269.684 21 C 268.895 21, 266.731 20.710, 264.875 20.356 C 263.019 20.002, 261.777 20.016, 262.115 20.388 M 277.500 23.930 C 282.578 26.008, 291.988 28.679, 292.484 28.182 C 292.788 27.879, 290.622 26.884, 287.671 25.971 C 281.576 24.085, 274.322 22.630, 277.500 23.930 M 295.559 29.468 C 296.626 30.276, 298.347 30.951, 299.382 30.968 C 300.417 30.986, 302.744 31.915, 304.553 33.033 C 306.362 34.151, 308.097 34.652, 308.410 34.146 C 308.722 33.641, 308.195 32.989, 307.239 32.698 C 306.282 32.407, 303.031 31.231, 300.014 30.084 C 293.494 27.607, 293.010 27.540, 295.559 29.468 M 214 34.077 C 209.441 34.482, 211.532 34.666, 221 34.691 C 234.080 34.727, 235.792 34.383, 225.500 33.789 C 222.750 33.630, 217.575 33.760, 214 34.077 M 200.500 34.667 C 199.400 34.907, 196.102 35.569, 193.171 36.139 C 190.240 36.709, 187.994 37.327, 188.181 37.514 C 188.703 38.037, 205.988 35.346, 206.703 34.631 C 207.388 33.946, 203.715 33.968, 200.500 34.667 M 235.509 35.015 C 235.844 35.557, 237.516 36, 239.226 36 C 243.003 36, 242.622 35.501, 238.200 34.659 C 236.139 34.266, 235.129 34.400, 235.509 35.015 M 243.577 35.876 C 243.052 36.724, 247.523 38.016, 250.875 37.985 C 252.250 37.972, 252.277 37.828, 251.048 37.051 C 250.249 36.545, 249.246 36.348, 248.818 36.612 C 248.391 36.876, 247.159 36.620, 246.081 36.044 C 244.988 35.458, 243.881 35.384, 243.577 35.876 M 312 35.465 C 312 36.302, 319.408 40.062, 320.534 39.797 C 321.227 39.634, 319.590 38.516, 316.897 37.314 C 314.204 36.111, 312 35.279, 312 35.465 M 253.500 37.795 C 254.663 39.063, 263.220 41.164, 262.504 40.007 C 262.240 39.580, 260.781 39.017, 259.262 38.757 C 257.743 38.496, 255.600 37.928, 254.500 37.494 C 253.081 36.935, 252.790 37.022, 253.500 37.795 M 169.056 42.528 C 163.861 44.414, 158.168 46.641, 156.404 47.478 C 154.641 48.315, 152.741 49, 152.182 49 C 151.624 49, 151.017 49.337, 150.833 49.750 C 150.650 50.163, 147.800 51.813, 144.500 53.419 C 141.200 55.024, 137.068 57.387, 135.317 58.669 C 133.566 59.951, 131.807 61, 131.408 61 C 131.008 61, 128.298 62.800, 125.384 65 C 122.470 67.200, 119.725 69, 119.283 69 C 118.842 69, 117.919 69.900, 117.232 71 C 116.545 72.100, 115.554 73, 115.030 73 C 114.506 73, 111.993 75.025, 109.447 77.500 C 106.900 79.975, 104.460 82, 104.023 82 C 103.587 82, 102.467 83.164, 101.535 84.587 C 100.603 86.009, 99.620 86.954, 99.352 86.685 C 98.066 85.399, 123.518 58, 125.998 58 C 126.524 58, 127.691 56.875, 128.592 55.500 C 129.493 54.125, 130.600 53, 131.053 53 C 131.506 53, 133.355 51.650, 135.161 50 C 136.968 48.350, 139.005 47, 139.688 47 C 140.371 47, 141.469 45.987, 142.129 44.750 C 143.530 42.120, 144.532 41.447, 130.885 52.302 C 117.510 62.940, 101.416 79.355, 92.452 91.500 C 90.828 93.700, 88.935 96.098, 88.243 96.828 C 86.336 98.844, 84.768 102.102, 85.401 102.735 C 85.711 103.045, 87.885 101.248, 90.232 98.741 C 101.650 86.550, 105.009 83.147, 109.885 78.830 C 112.786 76.262, 116.299 73.337, 117.691 72.330 C 119.083 71.324, 120.734 70.049, 121.361 69.498 C 129.739 62.131, 155.362 48.513, 171.317 42.950 C 177.467 40.804, 181.600 39.061, 180.500 39.075 C 179.400 39.089, 174.250 40.643, 169.056 42.528 M 266 41.500 C 267.375 42.286, 268.950 42.929, 269.500 42.929 C 270.050 42.929, 269.375 42.286, 268 41.500 C 266.625 40.714, 265.050 40.071, 264.500 40.071 C 263.950 40.071, 264.625 40.714, 266 41.500 M 324.500 41.518 C 325.600 42.414, 327.400 43.588, 328.500 44.128 L 330.500 45.110 328.500 43.482 C 327.400 42.586, 325.600 41.412, 324.500 40.872 L 322.500 39.890 324.500 41.518 M 271.498 43.003 C 271.159 43.551, 271.547 44, 272.360 44 C 273.173 44, 275.112 44.621, 276.669 45.381 C 289.771 51.771, 301.242 57.833, 305 60.352 C 314.907 66.993, 326.775 78.092, 335.399 88.780 C 338.630 92.784, 341.549 95.785, 341.885 95.448 C 342.222 95.112, 341.710 94.261, 340.748 93.558 C 339.787 92.855, 339 91.770, 339 91.148 C 339 90.526, 338.100 89.455, 337 88.768 C 335.900 88.081, 335 87.109, 335 86.609 C 335 86.108, 332.525 83.301, 329.500 80.372 C 326.475 77.442, 323.999 74.697, 323.998 74.272 C 323.997 73.848, 321.963 72.215, 319.477 70.645 C 316.991 69.074, 314.531 66.992, 314.009 66.017 C 312.974 64.083, 294.872 52, 293.008 52 C 292.376 52, 289.078 50.583, 285.679 48.850 C 272.778 42.274, 272.117 42.001, 271.498 43.003 M 331.500 45.717 C 332.050 46.273, 336.100 49.127, 340.500 52.061 C 348.444 57.357, 349.703 58.428, 360.412 69 C 368.487 76.972, 369.279 77.860, 374.451 84.750 C 377.032 88.188, 379.359 91, 379.622 91 C 379.886 91, 378.861 89.313, 377.345 87.250 C 366.720 72.795, 354.232 60.378, 342 52.106 C 332.644 45.779, 329.922 44.122, 331.500 45.717 M 205.500 75.028 C 176.735 81.061, 150.600 96.621, 126.990 121.771 C 117.115 132.291, 104.324 150.594, 101.475 158.283 C 100.501 160.913, 99.320 163.302, 98.852 163.592 C 98.383 163.881, 98 164.646, 98 165.291 C 98 167.196, 102.833 159.516, 103.609 156.379 C 104.467 152.908, 116.242 135.181, 121.634 129.242 C 128.252 121.953, 140.093 110, 140.696 110 C 141.012 110, 142.262 108.987, 143.474 107.750 C 146.452 104.708, 152.873 99.592, 154.323 99.105 C 154.971 98.887, 157.075 97.478, 159 95.974 C 160.925 94.469, 164.126 92.327, 166.113 91.213 C 168.100 90.099, 170.575 88.712, 171.613 88.129 C 182.732 81.889, 204.270 75.477, 219 74.021 L 226.500 73.280 220.500 73.210 C 217.200 73.172, 210.450 73.990, 205.500 75.028 M 234 74.078 C 238.125 74.516, 243.075 75.153, 245 75.492 C 246.925 75.831, 249.175 76.221, 250 76.359 C 250.825 76.496, 253.525 77.217, 256 77.961 C 258.475 78.705, 261.175 79.422, 262 79.556 C 264.713 79.995, 273.778 83.731, 276.134 85.382 C 277.405 86.272, 279.138 87, 279.986 87 C 283.202 87, 294.122 95.260, 303.783 105 C 306.367 107.606, 306.844 107.851, 305.650 105.961 C 302.642 101.198, 283.494 86.013, 280.485 86.003 C 279.927 86.001, 277.756 85.081, 275.660 83.958 C 264.895 78.188, 244.642 73.008, 233.500 73.175 L 226.500 73.280 234 74.078 M 96.381 87.250 C 92.681 93.528, 92.675 93.545, 95.321 90.500 C 97.751 87.703, 98.598 86, 97.559 86 C 97.316 86, 96.786 86.563, 96.381 87.250 M 380 92.800 C 380 93.240, 380.408 94.027, 380.906 94.550 C 381.404 95.073, 382.712 97.126, 383.812 99.113 C 384.912 101.100, 386.288 103.575, 386.871 104.613 C 392.844 115.258, 397.984 131.663, 401.559 151.500 C 403.925 164.623, 403.766 197.333, 401.318 201.294 C 401.039 201.745, 400.646 203.101, 400.444 204.307 C 399.602 209.340, 398.672 212.576, 397.723 213.774 C 396.797 214.945, 397.445 216.888, 398.432 215.901 C 399.282 215.051, 402.997 199.381, 403.862 193 C 407.775 164.116, 399.843 124.982, 384.780 98.856 C 381.001 92.301, 380 91.033, 380 92.800 M 345.378 102.250 C 353.162 114.436, 362.161 136.806, 363.681 147.750 C 364.006 150.088, 364.603 152, 365.007 152 C 366.483 152, 364.130 142.549, 358.657 126.500 C 356.582 120.417, 348.841 104.747, 346.553 102 C 345.866 101.175, 345.025 99.713, 344.683 98.750 C 344.342 97.787, 343.604 97, 343.044 97 C 342.483 97, 343.534 99.362, 345.378 102.250 M 224.728 108.722 C 226.503 108.943, 229.653 108.946, 231.728 108.730 C 233.802 108.513, 232.350 108.333, 228.500 108.328 C 224.650 108.324, 222.952 108.501, 224.728 108.722 M 236.196 108.453 C 237.128 109.487, 249.088 111.952, 248.492 110.987 C 248.235 110.571, 245.937 109.918, 243.384 109.535 C 240.832 109.152, 238.014 108.579, 237.122 108.260 C 236.230 107.942, 235.813 108.029, 236.196 108.453 M 309 111 C 309.589 112.100, 310.574 113, 311.190 113 C 311.806 113, 311.495 112.100, 310.500 111 C 309.505 109.900, 308.519 109, 308.310 109 C 308.101 109, 308.411 109.900, 309 111 M 200.250 113.031 C 196.787 114.423, 197.585 115.036, 201.250 113.800 C 203.037 113.196, 204.688 112.545, 204.917 112.352 C 205.730 111.665, 202.465 112.141, 200.250 113.031 M 252 112.714 C 252.825 113.020, 254.400 113.684, 255.500 114.190 C 257.468 115.096, 257.469 115.085, 255.559 113.555 C 254.491 112.700, 252.916 112.036, 252.059 112.079 C 250.712 112.147, 250.704 112.234, 252 112.714 M 312 114.728 C 312 115.373, 312.563 116.260, 313.250 116.700 C 315.733 118.289, 322.925 132.405, 325.865 141.460 C 327.107 145.287, 328.590 152.262, 329.161 156.960 C 330.275 166.135, 331 168.458, 331 162.850 C 331 157.790, 329.208 148.460, 326.802 141 C 323.307 130.161, 312 110.092, 312 114.728 M 264.090 118.197 C 274.603 123.441, 290.306 140.876, 296.582 154.272 C 297.929 157.148, 298.748 158.375, 298.403 157 C 296.937 151.176, 286.158 134, 283.968 134 C 283.436 134, 283 133.350, 283 132.557 C 283 131.763, 281.650 130.316, 280 129.341 C 278.350 128.366, 277 127.048, 277 126.410 C 277 124.868, 261.893 115, 259.532 115 C 258.514 115, 260.565 116.439, 264.090 118.197 M 181.649 122.027 C 178.431 124.212, 175.394 126, 174.899 126 C 174.405 126, 174 126.450, 174 127 C 174 127.550, 173.329 128, 172.508 128 C 171.688 128, 170.455 128.900, 169.768 130 C 169.081 131.100, 168.181 132, 167.768 132 C 167.355 132, 163.695 135.262, 159.634 139.250 C 153.533 145.240, 145.482 155.803, 141.530 163 C 139.622 166.476, 143.026 162.052, 148.003 154.589 C 156.089 142.463, 171.628 128.443, 185.402 120.848 C 188.206 119.301, 189.825 118.040, 189 118.045 C 188.175 118.050, 184.867 119.842, 181.649 122.027 M 213.284 147.510 C 206.934 148.890, 197.894 152.902, 194.744 155.740 C 191.551 158.615, 193.836 158.296, 197.704 155.327 C 202.644 151.534, 205.786 150.228, 214.261 148.445 C 221.331 146.958, 233.744 147.301, 237.119 149.078 C 238.009 149.546, 239.004 149.663, 239.330 149.336 C 240.499 148.167, 249.577 154.984, 253.230 159.774 C 257.568 165.463, 260.249 174.526, 259.802 181.988 C 259.432 188.162, 254.262 196.403, 249.030 199.157 C 234.135 207.001, 243.242 232.070, 261.905 234.596 C 267.247 235.320, 282.463 229.564, 283.695 226.353 C 283.980 225.609, 284.781 225, 285.475 225 C 287.157 225, 298.458 207.684, 300.485 202 C 301.368 199.525, 302.262 195.700, 302.472 193.500 C 302.828 189.758, 302.771 189.822, 301.587 194.500 C 298.772 205.619, 290.753 219.453, 283.959 224.913 C 277.863 229.812, 269.228 233.485, 264 233.404 C 259.517 233.334, 253.538 230.802, 249.363 227.204 C 245.902 224.221, 243 217.511, 243 212.490 C 243 206.563, 245.027 202.761, 249.726 199.874 C 257.473 195.114, 261 188.764, 261 179.577 C 261 155.793, 240.027 141.698, 213.284 147.510 M 365.015 157.583 C 365.024 159.738, 365.492 162.175, 366.057 163 C 366.785 164.065, 366.888 163.051, 366.413 159.500 C 365.578 153.258, 364.995 152.460, 365.015 157.583 M 187.195 162.928 C 182.581 167.827, 177.961 174.457, 173.556 182.500 C 169.976 189.036, 171.988 186.382, 179.982 174.022 C 183.548 168.510, 186.984 164, 187.617 164 C 188.708 164, 192.531 159.091, 191.830 158.591 C 191.648 158.461, 189.563 160.413, 187.195 162.928 M 233 161.573 C 234.925 162.477, 237.970 163.918, 239.766 164.775 C 243.756 166.678, 248.613 173.753, 249.490 178.939 C 250.676 185.962, 248.682 190.276, 241.997 195.143 C 233.839 201.083, 231.498 205.849, 231.506 216.500 C 231.512 223.296, 231.945 225.369, 234.385 230.273 C 239.547 240.648, 248.872 246.999, 261.058 248.440 L 265.500 248.966 261.500 247.993 C 250.559 245.331, 246.919 243.700, 242.776 239.600 C 240.424 237.274, 237.826 234.049, 237.002 232.435 C 236.177 230.821, 235.189 229.263, 234.805 228.974 C 232.224 227.029, 232.050 210.751, 234.558 205.861 C 236.334 202.397, 240.702 196.722, 241.212 197.214 C 241.970 197.946, 248.203 192.508, 249.515 189.971 C 252.380 184.431, 250.449 172.242, 246.304 169.700 C 245.587 169.260, 245 168.345, 245 167.666 C 245 166.234, 239.643 162.786, 236 161.874 C 234.625 161.529, 232.600 160.951, 231.500 160.588 C 230.400 160.225, 231.075 160.668, 233 161.573 M 299.446 161.586 C 299.878 162.639, 300.805 165.750, 301.505 168.500 C 303.085 174.700, 303.388 172.908, 301.919 166.058 C 301.325 163.286, 300.348 160.715, 299.749 160.345 C 299.018 159.893, 298.918 160.301, 299.446 161.586 M 220 162.578 C 218.075 163.363, 215.713 164.281, 214.750 164.619 C 213.787 164.957, 213 165.683, 213 166.232 C 213 166.781, 214.059 166.536, 215.353 165.688 C 216.648 164.840, 219.910 163.470, 222.603 162.643 C 225.297 161.816, 226.600 161.142, 225.500 161.146 C 224.400 161.149, 221.925 161.794, 220 162.578 M 137.542 169.338 C 136.144 171.724, 135 174.324, 135 175.115 C 135 175.907, 134.291 177.567, 133.425 178.803 C 132.559 180.040, 132.015 181.546, 132.217 182.151 C 132.419 182.756, 133.381 181.281, 134.357 178.875 C 135.332 176.469, 137.226 172.363, 138.565 169.750 C 141.611 163.807, 140.941 163.537, 137.542 169.338 M 365.881 168.219 C 366.342 170.996, 366.482 171.136, 366.797 169.135 C 367.002 167.834, 366.757 166.357, 366.253 165.853 C 365.698 165.298, 365.552 166.231, 365.881 168.219 M 96.823 168.500 C 96.495 169.600, 95.895 171.400, 95.490 172.500 C 94.859 174.214, 94.996 174.176, 96.447 172.231 C 97.378 170.984, 97.977 169.184, 97.779 168.231 C 97.467 166.730, 97.340 166.765, 96.823 168.500 M 206.353 171.270 C 202.339 175.365, 194 187.438, 194 189.155 C 194 189.620, 194.450 190, 195 190 C 195.550 190, 196 189.395, 196 188.655 C 196 186.282, 204.061 174.623, 208.349 170.793 C 210.632 168.754, 212.050 167.075, 211.500 167.063 C 210.950 167.050, 208.634 168.944, 206.353 171.270 M 330 169.441 C 330 170.784, 330.369 172.110, 330.819 172.388 C 331.270 172.667, 331.443 171.568, 331.206 169.947 C 330.681 166.373, 330 166.087, 330 169.441 M 365.515 177.750 C 365.181 180.363, 364.456 185.365, 363.904 188.867 C 362.943 194.967, 363.213 198.154, 364.368 194.325 C 365.404 190.886, 367.305 173, 366.633 173 C 366.352 173, 365.849 175.137, 365.515 177.750 M 303 181.500 C 303 185.808, 303.241 189.092, 303.536 188.797 C 304.271 188.062, 304.318 174.984, 303.588 174.254 C 303.264 173.931, 303 177.192, 303 181.500 M 329.917 176.250 C 329.698 182.162, 326.866 196.965, 325.832 197.604 C 325.374 197.887, 324.986 199.104, 324.969 200.309 C 324.952 201.514, 323.829 204.300, 322.474 206.500 C 321.119 208.700, 320.007 211.175, 320.002 212 C 319.990 214.100, 313.240 223.912, 308.750 228.355 C 306.688 230.397, 305 232.482, 305 232.990 C 305 234.330, 313.135 225.289, 316.783 219.894 C 323.438 210.053, 329.421 193.361, 330.528 181.544 C 330.917 177.395, 330.957 174, 330.617 174 C 330.278 174, 329.962 175.012, 329.917 176.250 M 92.735 180.557 C 89.758 191.368, 87.848 204.041, 87.568 214.842 C 87.282 225.855, 88.721 243, 89.931 243 C 90.308 243, 90.221 239.738, 89.736 235.750 C 87.544 217.728, 89.644 190.885, 94.112 179.801 C 94.711 178.316, 95.014 176.542, 94.786 175.858 C 94.558 175.174, 93.635 177.289, 92.735 180.557 M 131.465 185.057 C 131.105 185.639, 130.655 187.101, 130.464 188.307 C 130.272 189.513, 129.222 194.325, 128.130 199 C 127.038 203.675, 125.925 212, 125.657 217.500 L 125.170 227.500 126.136 218.500 C 127.001 210.446, 129.258 198.335, 131.866 187.750 C 132.797 183.971, 132.668 183.110, 131.465 185.057 M 170.116 188.668 C 170.052 189.311, 169.709 190.661, 169.353 191.668 C 168.851 193.089, 168.984 193.244, 169.947 192.356 C 170.629 191.727, 170.973 190.377, 170.710 189.356 C 170.447 188.335, 170.180 188.026, 170.116 188.668 M 193.151 192.750 C 192.646 193.713, 191.979 196.525, 191.668 199 C 191.358 201.475, 191.359 202.607, 191.671 201.515 C 191.982 200.423, 192.815 197.610, 193.521 195.265 C 194.863 190.804, 194.712 189.777, 193.151 192.750 M 165.646 203.777 C 164.749 208.025, 163.761 213.525, 163.451 216 C 162.781 221.350, 163.915 240, 164.911 240 C 165.293 240, 165.324 237.442, 164.980 234.315 C 163.768 223.310, 165.489 203.950, 168.136 198.811 C 168.623 197.863, 168.626 196.887, 168.142 196.587 C 167.666 196.294, 166.543 199.529, 165.646 203.777 M 360.270 205.561 C 357.536 216.137, 352.115 228.406, 346.344 237.077 C 341.986 243.624, 327.668 258.587, 321 263.563 C 311.302 270.799, 299.144 277.233, 288.757 280.625 C 285.599 281.656, 283.011 282.813, 283.007 283.196 C 282.995 284.343, 299.346 278.261, 305.387 274.871 C 306.425 274.288, 308.900 272.901, 310.887 271.787 C 312.874 270.673, 316.140 268.465, 318.144 266.881 C 320.148 265.296, 322.109 264, 322.502 264 C 322.895 264, 325.454 261.750, 328.190 259 C 330.926 256.250, 333.577 254, 334.082 254 C 334.587 254, 335 253.603, 335 253.118 C 335 252.632, 336.892 250.343, 339.206 248.030 C 343.947 243.288, 353.997 228.345, 354.007 226.022 C 354.010 225.185, 354.903 223.150, 355.991 221.500 C 357.080 219.850, 358.698 216.025, 359.587 213 C 360.477 209.975, 361.572 206.375, 362.021 205 C 363.517 200.418, 364.047 197, 363.261 197 C 362.833 197, 361.488 200.852, 360.270 205.561 M 190.073 208 C 189.559 217.215, 190.215 222.699, 192.704 230 C 195.699 238.786, 199.074 246.361, 200.203 246.833 C 200.641 247.017, 201 247.779, 201 248.527 C 201 249.275, 201.787 250.481, 202.750 251.209 C 203.713 251.936, 204.982 253.397, 205.571 254.456 C 206.161 255.515, 207.286 256.594, 208.071 256.854 C 208.857 257.115, 207.902 255.342, 205.948 252.914 C 201.217 247.035, 198.417 242.066, 194.739 233.021 C 192.252 226.903, 191.554 223.448, 191.003 214.500 C 190.630 208.450, 190.212 205.525, 190.073 208 M 396.072 220.218 C 395.414 222.023, 394.002 225.300, 392.935 227.500 C 391.868 229.700, 391.006 232.175, 391.019 233 C 391.033 233.825, 391.969 232.475, 393.100 230 C 395.642 224.433, 398.020 217.687, 397.590 217.257 C 397.414 217.080, 396.731 218.413, 396.072 220.218 M 125.635 233 C 125.942 236.025, 126.397 240.525, 126.645 243 C 127.090 247.425, 131.285 263.583, 133.007 267.500 C 133.490 268.600, 135.119 272.200, 136.625 275.500 C 138.132 278.800, 139.395 281.735, 139.432 282.021 C 139.470 282.308, 140.530 283.883, 141.789 285.521 C 143.315 287.507, 142.773 285.834, 140.162 280.500 C 135.469 270.913, 130.545 256.750, 129.036 248.500 C 125.729 230.424, 125.069 227.414, 125.635 233 M 300.250 236.250 C 297.342 239.349, 296.208 240.144, 290.744 242.912 C 288.128 244.237, 286.171 245.504, 286.394 245.728 C 286.618 245.951, 288.983 245.022, 291.651 243.661 C 296.753 241.059, 305.259 234.113, 303.430 234.042 C 302.842 234.019, 301.411 235.012, 300.250 236.250 M 381.435 248.742 C 376.521 256.300, 370.700 264.442, 368.500 266.835 C 360.503 275.534, 349.814 286, 348.926 286 C 348.426 286, 347.455 286.900, 346.768 288 C 346.081 289.100, 344.968 290, 344.295 290 C 343.621 290, 342.550 290.973, 341.913 292.162 C 339.135 297.353, 357.301 280.940, 369.209 267.500 C 374.669 261.338, 392.101 235, 390.720 235 C 390.527 235, 386.349 241.184, 381.435 248.742 M 165.089 242.576 C 164.983 245.039, 168.896 256.522, 172.623 264.685 C 178.764 278.137, 190.163 291.578, 202.500 299.916 C 210.846 305.556, 212 306.256, 212 305.676 C 212 305.434, 208.963 303.283, 205.250 300.897 C 187.407 289.431, 173.759 269.744, 166.499 245 C 165.773 242.525, 165.139 241.434, 165.089 242.576 M 90 245.399 C 90 247.800, 94.176 265.158, 94.641 264.692 C 95.098 264.235, 91.174 244.841, 90.485 244.152 C 90.218 243.885, 90 244.446, 90 245.399 M 277 247.244 C 274.525 247.810, 272.950 248.425, 273.500 248.610 C 274.050 248.795, 276.975 248.333, 280 247.584 C 286.365 246.007, 283.719 245.707, 277 247.244 M 267.250 248.689 C 268.212 248.941, 269.788 248.941, 270.750 248.689 C 271.712 248.438, 270.925 248.232, 269 248.232 C 267.075 248.232, 266.288 248.438, 267.250 248.689 M 209 258.267 C 209 261.630, 234.243 280.127, 238.500 279.883 L 240.500 279.768 238.500 279.272 C 234.904 278.379, 219.620 267.928, 214.250 262.690 C 211.363 259.873, 209 257.883, 209 258.267 M 95 267.073 C 95 267.333, 96.324 270.985, 97.943 275.188 C 105.934 295.942, 117.461 312.917, 135 329.761 C 139.936 334.501, 159.040 347.922, 169.500 353.997 C 177.362 358.563, 171.235 354.129, 155.250 343.684 C 146.313 337.844, 139 332.608, 139 332.047 C 139 331.487, 137.200 329.837, 135 328.381 C 132.800 326.925, 131 325.350, 131 324.880 C 131 324.411, 128.753 321.658, 126.007 318.763 C 119.587 311.997, 118 310.140, 118 309.394 C 118 309.061, 116.650 307.083, 115 305 C 113.350 302.917, 112 300.714, 112 300.106 C 112 299.498, 111.662 298.996, 111.250 298.992 C 110.838 298.988, 109.999 297.975, 109.387 296.742 C 108.776 295.509, 106.715 291.522, 104.809 287.882 C 102.903 284.243, 100.296 278.393, 99.016 274.882 C 97.023 269.415, 95 265.481, 95 267.073 M 241.871 281.271 C 244.906 284.306, 273.639 286.549, 279.887 284.238 C 281.070 283.800, 276.068 283.596, 268.769 283.786 C 258.146 284.061, 254.048 283.752, 248.219 282.234 C 244.215 281.192, 241.358 280.758, 241.871 281.271 M 144.469 290 C 144.760 290.825, 145.276 292.288, 145.616 293.250 C 145.955 294.212, 146.631 295, 147.117 295 C 147.602 295, 148 295.487, 148 296.082 C 148 297.625, 159.831 312.721, 161.560 313.385 C 162.352 313.689, 163 314.550, 163 315.300 C 163 316.049, 164.122 317.263, 165.493 317.996 C 166.865 318.730, 168.658 320.355, 169.478 321.607 C 170.298 322.859, 173.114 325.346, 175.735 327.133 C 178.356 328.921, 181.073 331.177, 181.774 332.146 C 183.201 334.118, 194.444 341.301, 196.599 341.617 C 197.363 341.730, 200.265 343.222, 203.047 344.934 C 205.828 346.645, 209.769 348.663, 211.802 349.418 C 213.836 350.173, 217.969 351.738, 220.986 352.895 C 224.003 354.053, 227.153 354.983, 227.986 354.963 C 228.819 354.942, 226.575 353.878, 223 352.599 C 215.247 349.823, 206.326 345.641, 195.688 339.794 C 178.489 330.341, 159.469 311.732, 145.220 290.415 C 144.515 289.362, 144.178 289.175, 144.469 290 M 337.362 295.500 C 337.045 296.325, 336.439 297, 336.014 297 C 334.987 297, 323.855 303.724, 322.537 305.141 C 321.966 305.753, 324.327 304.735, 327.783 302.877 C 334.685 299.167, 341.237 294.105, 339.219 294.041 C 338.514 294.018, 337.678 294.675, 337.362 295.500 M 391.500 309.345 C 375.088 326.009, 349.262 342.281, 324.744 351.406 C 313.699 355.517, 294.279 360, 287.517 360 C 285.033 360, 283 360.364, 283 360.809 C 283 362.832, 310.160 357.939, 322.500 353.692 C 333.172 350.020, 347.140 343.554, 356.500 337.954 C 359.250 336.308, 362.400 334.571, 363.500 334.092 C 364.600 333.613, 366.761 332.047, 368.302 330.611 C 369.842 329.175, 371.343 328, 371.636 328 C 372.664 328, 384 318.696, 384 317.852 C 384 317.384, 384.637 317, 385.417 317 C 386.196 317, 387.772 315.762, 388.919 314.250 C 390.066 312.738, 390.731 312.288, 390.396 313.250 C 389.394 316.124, 391.723 315.235, 394.324 311.750 C 400.997 302.807, 399.334 301.390, 391.500 309.345 M 214.500 307.518 C 215.600 308.414, 217.400 309.588, 218.500 310.128 L 220.500 311.110 218.500 309.482 C 217.400 308.586, 215.600 307.412, 214.500 306.872 L 212.500 305.890 214.500 307.518 M 313.500 309.044 C 310.200 310.624, 304.900 312.673, 301.723 313.598 C 298.545 314.522, 295.677 315.714, 295.348 316.247 C 294.984 316.836, 295.679 316.939, 297.125 316.509 C 301.891 315.095, 319.526 307.864, 320.450 306.945 C 322.066 305.337, 319.836 306.011, 313.500 309.044 M 223.141 311.411 C 228.319 314.427, 250.623 320.148, 256.233 319.899 C 257.480 319.844, 252.650 318.557, 245.500 317.040 C 238.350 315.523, 230.700 313.604, 228.500 312.776 C 221.302 310.065, 220.464 309.852, 223.141 311.411 M 380.421 324.312 C 370.371 334.483, 363.118 341, 361.848 341 C 361.391 341, 360.455 341.900, 359.768 343 C 359.081 344.100, 358.158 345, 357.717 345 C 357.275 345, 354.530 346.800, 351.616 349 C 348.702 351.200, 345.979 353, 345.564 353 C 345.148 353, 343.441 353.974, 341.769 355.164 C 336.343 359.028, 322.339 365.729, 312.605 369.119 C 302.688 372.573, 299.923 374.483, 309.185 371.481 C 328.834 365.114, 348.289 354.135, 366.500 339.137 C 375.809 331.470, 390 317.513, 390 316.025 C 390 315.461, 389.887 315.028, 389.750 315.062 C 389.613 315.096, 385.415 319.258, 380.421 324.312 M 262.747 320.277 C 264.990 320.720, 270.802 320.683, 275.663 320.195 L 284.500 319.306 271.584 319.388 C 262.153 319.448, 259.769 319.688, 262.747 320.277 M 230.500 355.729 C 232.493 357.724, 264.575 362.739, 263.423 360.875 C 263.125 360.394, 260.708 360, 258.051 360 C 253.921 360, 240.426 357.611, 232 355.388 C 230.332 354.947, 229.833 355.061, 230.500 355.729 M 175 356.718 C 175.825 357.026, 178.188 358.124, 180.250 359.159 C 182.313 360.194, 184 360.843, 184 360.602 C 184 359.613, 177.127 356.006, 175.382 356.079 C 173.965 356.138, 173.871 356.296, 175 356.718 M 188.859 363.022 C 194.400 365.536, 195.318 365.528, 191.500 363 C 189.850 361.907, 187.600 361.020, 186.500 361.029 C 185.276 361.038, 186.191 361.811, 188.859 363.022 M 269.750 361.732 C 272.087 361.943, 275.913 361.943, 278.250 361.732 C 280.587 361.522, 278.675 361.349, 274 361.349 C 269.325 361.349, 267.413 361.522, 269.750 361.732 M 195 364.861 C 195 365.334, 198.262 366.715, 202.250 367.929 C 206.238 369.143, 210.625 370.532, 212 371.015 C 215.875 372.376, 230.934 375.189, 232.160 374.780 C 232.763 374.579, 228.810 373.579, 223.378 372.557 C 217.945 371.535, 212.825 370.360, 212 369.947 C 211.175 369.533, 208.475 368.655, 206 367.995 C 203.525 367.335, 200.306 366.166, 198.846 365.398 C 195.768 363.777, 195 363.670, 195 364.861 M 295.500 374 C 292.805 374.686, 292.754 374.765, 295 374.782 C 296.375 374.792, 298.625 374.440, 300 374 C 301.959 373.373, 302.067 373.203, 300.500 373.218 C 299.400 373.228, 297.150 373.580, 295.500 374 M 235.853 375.253 C 236.357 375.757, 237.834 376.002, 239.135 375.797 C 241.136 375.482, 240.996 375.342, 238.219 374.881 C 236.231 374.552, 235.298 374.698, 235.853 375.253 M 283.500 375.740 C 280.750 375.949, 278.158 376.457, 277.740 376.870 C 277.322 377.282, 280.188 377.277, 284.108 376.858 C 288.029 376.439, 291.484 375.850, 291.785 375.548 C 292.087 375.247, 291.471 375.081, 290.417 375.180 C 289.363 375.279, 286.250 375.531, 283.500 375.740 M 246.500 377.027 C 252.021 377.793, 276.702 378.340, 275.964 377.680 C 275.709 377.451, 267.850 377.055, 258.500 376.799 C 249.150 376.543, 243.750 376.645, 246.500 377.027 M 220.750 385.750 C 238.488 385.903, 267.513 385.903, 285.250 385.750 C 302.988 385.596, 288.475 385.471, 253 385.471 C 217.525 385.471, 203.013 385.596, 220.750 385.750 M 224.750 401.749 C 241.388 401.903, 268.613 401.903, 285.250 401.749 C 301.888 401.596, 288.275 401.470, 255 401.470 C 221.725 401.470, 208.113 401.596, 224.750 401.749 M 221.750 407.749 C 238.937 407.903, 267.062 407.903, 284.250 407.749 C 301.438 407.596, 287.375 407.470, 253 407.470 C 218.625 407.470, 204.563 407.596, 221.750 407.749 M 221.750 424.749 C 238.937 424.903, 267.062 424.903, 284.250 424.749 C 301.438 424.596, 287.375 424.470, 253 424.470 C 218.625 424.470, 204.563 424.596, 221.750 424.749 M 221.750 430.749 C 238.937 430.903, 267.062 430.903, 284.250 430.749 C 301.438 430.596, 287.375 430.470, 253 430.470 C 218.625 430.470, 204.563 430.596, 221.750 430.749 M 185 441.659 C 185 442.205, 186.238 443.742, 187.750 445.076 L 190.500 447.500 188 444.500 C 186.625 442.850, 185.387 441.313, 185.250 441.083 C 185.113 440.854, 185 441.113, 185 441.659 M 222.250 447.749 C 239.162 447.903, 266.837 447.903, 283.750 447.749 C 300.662 447.596, 286.825 447.470, 253 447.470 C 219.175 447.470, 205.337 447.596, 222.250 447.749 M 227.750 454.749 C 241.638 454.906, 264.363 454.906, 278.250 454.749 C 292.138 454.592, 280.775 454.464, 253 454.464 C 225.225 454.464, 213.863 454.592, 227.750 454.749" stroke="none" fill="#919191" fill-rule="evenodd"/><path d="M 211 19.057 C 202.057 20.166, 186.318 23.537, 180.949 25.494 C 178.502 26.386, 174.475 27.843, 172 28.732 C 169.525 29.621, 164.800 31.780, 161.500 33.530 C 158.200 35.280, 153.475 37.789, 151 39.106 C 148.525 40.423, 146.350 41.837, 146.167 42.250 C 145.983 42.663, 145.212 43, 144.452 43 C 143.692 43, 142.589 43.900, 142 45 C 141.411 46.100, 140.371 47, 139.688 47 C 139.005 47, 136.968 48.350, 135.161 50 C 133.355 51.650, 131.506 53, 131.053 53 C 130.600 53, 129.493 54.125, 128.592 55.500 C 127.691 56.875, 126.524 58, 125.998 58 C 123.518 58, 98.066 85.399, 99.352 86.685 C 99.620 86.954, 100.603 86.009, 101.535 84.587 C 102.467 83.164, 103.587 82, 104.023 82 C 104.460 82, 106.900 79.975, 109.447 77.500 C 111.993 75.025, 114.506 73, 115.030 73 C 115.554 73, 116.545 72.100, 117.232 71 C 117.919 69.900, 118.842 69, 119.283 69 C 119.725 69, 122.470 67.200, 125.384 65 C 128.298 62.800, 131.008 61, 131.408 61 C 131.807 61, 133.566 59.951, 135.317 58.669 C 137.068 57.387, 141.200 55.024, 144.500 53.419 C 147.800 51.813, 150.650 50.163, 150.833 49.750 C 151.017 49.337, 151.604 49, 152.138 49 C 152.673 49, 154.998 48.151, 157.305 47.114 C 163.542 44.309, 175.620 40.097, 180.876 38.893 C 183.419 38.310, 186.400 37.627, 187.500 37.374 C 194.484 35.766, 204.378 34.036, 206.271 34.090 C 207.497 34.126, 213.900 34.123, 220.500 34.083 C 227.100 34.043, 234.075 34.232, 236 34.503 C 240.561 35.143, 245.871 36.003, 249 36.607 C 250.375 36.872, 252.175 37.211, 253 37.361 C 255.355 37.788, 260.350 39.110, 262 39.742 C 262.825 40.059, 263.851 40.242, 264.280 40.149 C 264.709 40.056, 266.383 40.664, 268 41.500 C 269.617 42.336, 271.315 42.903, 271.774 42.760 C 272.644 42.489, 276.576 44.222, 286.179 49.110 C 289.303 50.699, 292.376 52, 293.008 52 C 294.872 52, 312.974 64.083, 314.009 66.017 C 314.531 66.992, 316.991 69.074, 319.477 70.645 C 321.963 72.215, 323.997 73.848, 323.998 74.272 C 323.999 74.697, 326.475 77.442, 329.500 80.372 C 332.525 83.301, 335 86.108, 335 86.609 C 335 87.109, 335.900 88.081, 337 88.768 C 338.100 89.455, 339 90.640, 339 91.401 C 339 92.163, 339.675 93.045, 340.500 93.362 C 341.325 93.678, 342 94.578, 342 95.362 C 342 96.145, 342.675 97.045, 343.500 97.362 C 344.325 97.678, 345 98.478, 345 99.140 C 345 99.801, 345.631 101.053, 346.401 101.921 C 348.683 104.492, 356.446 120.025, 358.685 126.500 C 362.774 138.325, 364.961 146.604, 365.686 153 C 367.035 164.904, 366.169 191.299, 364.333 194.270 C 364.062 194.708, 363.646 196.739, 363.407 198.783 C 363.168 200.827, 362.575 203.625, 362.089 205 C 361.603 206.375, 360.477 209.975, 359.587 213 C 358.698 216.025, 357.080 219.850, 355.991 221.500 C 354.903 223.150, 354.010 225.185, 354.007 226.022 C 353.997 228.345, 343.947 243.288, 339.206 248.030 C 336.892 250.343, 335 252.632, 335 253.118 C 335 253.603, 334.587 254, 334.082 254 C 333.577 254, 330.926 256.250, 328.190 259 C 325.454 261.750, 322.895 264, 322.502 264 C 322.109 264, 320.148 265.296, 318.144 266.881 C 316.140 268.465, 312.874 270.673, 310.887 271.787 C 308.900 272.901, 306.425 274.288, 305.387 274.871 C 300.220 277.770, 283 284.386, 283 283.471 C 283 283.239, 281.842 283.490, 280.427 284.028 C 273.711 286.581, 247.761 284.777, 242.285 281.376 C 241.067 280.619, 239.267 279.999, 238.285 279.999 C 233.943 279.996, 209 261.449, 209 258.223 C 209 257.815, 208.100 256.919, 207 256.232 C 205.900 255.545, 205 254.420, 205 253.732 C 205 253.044, 204.100 251.919, 203 251.232 C 201.900 250.545, 201 249.349, 201 248.575 C 201 247.800, 200.641 247.017, 200.203 246.833 C 199.071 246.360, 195.708 238.804, 192.615 229.787 C 190.753 224.358, 189.947 219.903, 189.894 214.743 C 189.815 207.087, 191.540 195.929, 193.332 192.500 C 193.907 191.400, 194.439 189.751, 194.515 188.836 C 194.874 184.503, 208.782 167, 211.867 167 C 212.490 167, 213 166.656, 213 166.236 C 213 164.383, 226.476 160.049, 230.500 160.607 C 237.041 161.515, 245 165.390, 245 167.666 C 245 168.345, 245.587 169.260, 246.304 169.700 C 250.449 172.242, 252.380 184.431, 249.515 189.971 C 248.203 192.508, 241.970 197.946, 241.212 197.214 C 240.702 196.722, 236.334 202.397, 234.558 205.861 C 232.050 210.751, 232.224 227.029, 234.805 228.974 C 235.189 229.263, 236.177 230.821, 237.002 232.435 C 244.868 247.844, 270.211 253, 290 243.219 C 296.200 240.154, 297.268 239.428, 300.250 236.250 C 301.411 235.012, 302.857 234, 303.465 234 C 304.072 234, 305.364 232.653, 306.337 231.007 C 307.309 229.361, 308.916 227.580, 309.907 227.050 C 312.040 225.908, 319.998 213.993, 320.005 211.930 C 320.008 211.144, 321.119 208.700, 322.474 206.500 C 323.829 204.300, 324.952 201.577, 324.969 200.450 C 324.986 199.322, 325.389 197.972, 325.865 197.450 C 326.688 196.546, 328.440 188.558, 329.622 180.316 C 331.128 169.820, 329.449 152.504, 325.852 141.422 C 322.924 132.401, 315.729 118.286, 313.250 116.700 C 312.563 116.260, 312 115.473, 312 114.950 C 312 113.914, 311.056 112.777, 304.572 106 C 294.784 95.771, 283.435 87, 279.986 87 C 279.138 87, 277.405 86.272, 276.134 85.382 C 273.778 83.731, 264.713 79.995, 262 79.556 C 261.175 79.422, 258.475 78.705, 256 77.961 C 251.085 76.484, 250.589 76.381, 244.043 75.477 C 241.591 75.139, 239.246 74.652, 238.831 74.396 C 238.417 74.140, 233.196 73.926, 227.228 73.920 C 210.083 73.905, 185.993 80.059, 171.613 88.129 C 170.575 88.712, 168.100 90.099, 166.113 91.213 C 164.126 92.327, 160.925 94.469, 159 95.974 C 157.075 97.478, 154.971 98.887, 154.323 99.105 C 152.873 99.592, 146.452 104.708, 143.474 107.750 C 142.262 108.988, 141.012 110, 140.696 110 C 140.093 110, 128.252 121.953, 121.634 129.242 C 116.242 135.181, 104.467 152.908, 103.609 156.379 C 103.218 157.962, 101.795 160.879, 100.449 162.861 C 99.102 164.843, 98 167.395, 98 168.532 C 98 169.669, 97.515 171.085, 96.922 171.678 C 95.859 172.741, 95.573 173.650, 92.567 185.500 C 89.192 198.806, 87.796 219.371, 89.377 232.500 C 89.774 235.800, 90.264 239.850, 90.466 241.500 C 91.228 247.735, 95.185 265.621, 96.440 268.500 C 97.158 270.150, 98.582 273.749, 99.604 276.497 C 100.625 279.246, 102.994 284.421, 104.868 287.997 C 106.742 291.574, 108.776 295.509, 109.387 296.742 C 109.999 297.975, 110.838 298.988, 111.250 298.992 C 111.662 298.996, 112 299.498, 112 300.106 C 112 300.714, 113.350 302.917, 115 305 C 116.650 307.083, 118 309.061, 118 309.394 C 118 310.140, 119.587 311.997, 126.007 318.763 C 128.753 321.658, 131 324.411, 131 324.880 C 131 325.350, 132.800 326.925, 135 328.381 C 137.200 329.837, 139 331.490, 139 332.053 C 139 333.495, 173.510 356, 175.721 356 C 176.719 356, 179.191 357.125, 181.215 358.500 C 183.238 359.875, 185.705 361.003, 186.697 361.007 C 187.689 361.010, 189.822 361.885, 191.438 362.950 C 193.053 364.015, 194.740 364.661, 195.186 364.385 C 195.631 364.110, 197.234 364.539, 198.748 365.340 C 200.262 366.140, 203.525 367.342, 206 368.012 C 208.475 368.681, 211.400 369.605, 212.500 370.065 C 214.659 370.969, 227.998 373.695, 234.500 374.562 C 236.700 374.855, 241.425 375.498, 245 375.991 C 254.870 377.352, 284.154 376.481, 293.500 374.549 C 308.964 371.351, 332.068 362.072, 341.769 355.164 C 343.441 353.974, 345.148 353, 345.564 353 C 345.979 353, 348.702 351.200, 351.616 349 C 354.530 346.800, 357.275 345, 357.717 345 C 358.158 345, 359.081 344.100, 359.768 343 C 360.455 341.900, 361.391 341, 361.848 341 C 363.902 341, 386.696 319.073, 389.459 314.438 L 391.211 311.500 389.022 314.250 C 387.818 315.763, 386.196 317, 385.417 317 C 384.637 317, 384 317.384, 384 317.852 C 384 318.696, 372.664 328, 371.636 328 C 371.343 328, 369.842 329.175, 368.302 330.611 C 366.761 332.047, 364.600 333.613, 363.500 334.092 C 362.400 334.571, 359.250 336.308, 356.500 337.954 C 339.789 347.953, 321.285 355.080, 301.500 359.138 C 285.928 362.332, 259.404 362.325, 243.500 359.122 C 237.450 357.903, 231.600 356.538, 230.500 356.087 C 229.400 355.637, 225.575 354.270, 222 353.050 C 210.807 349.230, 208.249 348.135, 203.047 344.934 C 200.265 343.222, 197.363 341.730, 196.599 341.617 C 194.444 341.301, 183.201 334.118, 181.774 332.146 C 181.073 331.177, 178.356 328.921, 175.735 327.133 C 173.114 325.346, 170.298 322.859, 169.478 321.607 C 168.658 320.355, 166.865 318.730, 165.493 317.996 C 164.122 317.263, 163 316.049, 163 315.300 C 163 314.550, 162.352 313.689, 161.560 313.385 C 159.831 312.721, 148 297.625, 148 296.082 C 148 295.487, 147.660 295, 147.244 295 C 146.828 295, 145.858 293.538, 145.087 291.750 C 144.316 289.962, 142.745 287.150, 141.594 285.500 C 140.444 283.850, 139.472 282.275, 139.434 282 C 139.396 281.725, 138.132 278.800, 136.625 275.500 C 135.119 272.200, 133.490 268.600, 133.007 267.500 C 131.107 263.177, 127.050 247.157, 126.296 241 C 124.844 229.145, 125.649 209.332, 127.981 199.500 C 129.155 194.550, 130.282 189.431, 130.484 188.124 C 130.686 186.818, 131.300 185.300, 131.848 184.752 C 132.395 184.205, 132.604 183.130, 132.310 182.365 C 132.016 181.600, 132.241 180.414, 132.810 179.729 C 133.378 179.045, 134.464 176.688, 135.222 174.492 C 137.755 167.164, 151.783 146.878, 159.594 139.250 C 163.677 135.262, 167.355 132, 167.768 132 C 168.181 132, 169.081 131.100, 169.768 130 C 170.455 128.900, 171.688 128, 172.508 128 C 173.329 128, 174 127.550, 174 127 C 174 126.450, 174.399 126, 174.886 126 C 175.373 126, 178.468 124.200, 181.762 122 C 185.057 119.800, 188.428 118, 189.254 118 C 190.079 118, 191.311 117.330, 191.991 116.511 C 192.671 115.692, 193.545 115.219, 193.935 115.460 C 194.325 115.701, 195.904 115.244, 197.445 114.444 C 200.227 113.001, 209.470 110.364, 215.402 109.322 C 225.786 107.498, 243.504 108.425, 248.236 111.040 C 249.191 111.568, 250.793 112, 251.795 112 C 252.798 112, 254.491 112.661, 255.559 113.468 C 256.626 114.276, 258.374 114.951, 259.442 114.968 C 261.894 115.008, 277 124.853, 277 126.410 C 277 127.048, 278.350 128.366, 280 129.341 C 281.650 130.316, 283 131.763, 283 132.557 C 283 133.350, 283.436 134, 283.968 134 C 285.579 134, 292.449 144.053, 295.926 151.500 C 297.724 155.350, 299.641 159.345, 300.186 160.378 C 302.510 164.784, 304.635 180.251, 303.762 186.414 C 302.361 196.310, 302.154 197.291, 300.480 202 C 298.462 207.676, 287.160 225, 285.475 225 C 284.781 225, 283.980 225.609, 283.695 226.353 C 282.463 229.564, 267.247 235.320, 261.905 234.596 C 254.867 233.643, 247.072 228.002, 243.810 221.500 C 239.367 212.644, 241.604 203.067, 249.030 199.157 C 254.262 196.403, 259.432 188.162, 259.802 181.988 C 260.249 174.526, 257.568 165.463, 253.230 159.774 C 249.577 154.984, 240.499 148.167, 239.330 149.336 C 239.004 149.663, 238.009 149.546, 237.119 149.078 C 233.744 147.301, 221.331 146.958, 214.261 148.445 C 205.847 150.215, 202.644 151.535, 197.856 155.206 C 195.852 156.743, 193.811 158, 193.322 158 C 192.832 158, 191.634 159.350, 190.659 161 C 189.684 162.650, 188.350 164.017, 187.693 164.038 C 185.660 164.103, 171 186.717, 171 189.789 C 171 190.785, 170.492 192.108, 169.870 192.730 C 169.249 193.351, 168.582 194.904, 168.389 196.180 C 168.196 197.456, 167.235 202.325, 166.254 207 C 163.544 219.913, 164.180 239.094, 167.625 248.361 C 168.471 250.637, 169.416 253.575, 169.725 254.889 C 171.811 263.768, 183.518 281.911, 193.360 291.517 C 198.652 296.682, 218.802 310.203, 221.810 310.607 C 222.739 310.732, 225.525 311.608, 228 312.554 C 230.475 313.500, 238.350 315.466, 245.500 316.923 C 259.895 319.856, 277.015 320.236, 287.849 317.863 C 290.957 317.182, 293.725 316.590, 294 316.547 C 294.275 316.504, 294.950 316.186, 295.500 315.840 C 296.050 315.494, 298.750 314.542, 301.500 313.724 C 306.805 312.146, 320.673 306.265, 322.718 304.725 C 325.227 302.836, 335.272 297, 336.014 297 C 336.439 297, 337.045 296.325, 337.362 295.500 C 337.678 294.675, 338.611 294, 339.433 294 C 340.256 294, 341.411 293.100, 342 292 C 342.589 290.900, 343.621 290, 344.295 290 C 344.968 290, 346.081 289.100, 346.768 288 C 347.455 286.900, 348.426 286, 348.926 286 C 349.736 286, 359.299 276.684, 368.445 266.983 C 373.153 261.990, 391 234.528, 391 232.277 C 391 231.245, 391.459 229.941, 392.021 229.379 C 393.083 228.317, 396.984 218.617, 397.402 216 C 397.534 215.175, 397.910 213.825, 398.237 213 C 398.927 211.264, 400.341 205.965, 400.506 204.500 C 400.568 203.950, 400.914 202.600, 401.274 201.500 C 403.840 193.673, 404.004 165.061, 401.559 151.500 C 397.984 131.663, 392.844 115.258, 386.871 104.613 C 383.224 98.115, 382.042 96.020, 380.844 93.930 C 379.160 90.992, 370.352 79.175, 367.852 76.500 C 365.950 74.465, 357.538 66.112, 351.513 60.277 C 347.244 56.142, 322.617 40, 320.578 40 C 319.727 40, 316.783 38.617, 314.037 36.928 C 311.290 35.238, 308.668 34.087, 308.209 34.371 C 307.751 34.654, 306.053 34.015, 304.438 32.950 C 302.822 31.885, 300.577 31.010, 299.450 31.007 C 298.322 31.003, 296.892 30.492, 296.270 29.870 C 295.649 29.249, 294.096 28.617, 292.820 28.465 C 291.544 28.314, 288.475 27.522, 286 26.705 C 281.820 25.325, 276.861 23.940, 274.500 23.494 C 273.950 23.390, 273.275 23.178, 273 23.023 C 272.725 22.869, 271.375 22.621, 270 22.472 C 268.625 22.323, 266.375 21.898, 265 21.527 C 263.625 21.156, 260.925 20.674, 259 20.456 C 257.075 20.238, 253.925 19.799, 252 19.482 C 246.042 18.500, 217.851 18.207, 211 19.057 M 96.381 87.250 C 92.681 93.528, 92.675 93.545, 95.321 90.500 C 97.751 87.703, 98.598 86, 97.559 86 C 97.316 86, 96.786 86.563, 96.381 87.250 M 187.128 387.345 C 185.294 389.555, 184.860 394.330, 186.250 397 C 186.966 398.375, 188.931 399.950, 190.616 400.500 C 192.594 401.145, 215.586 401.323, 255.429 401 L 317.178 400.500 319.089 398.139 C 321.403 395.280, 321.548 391.228, 319.443 388.223 L 317.887 386 253.066 386 C 199.980 386, 188.043 386.244, 187.128 387.345 M 187.884 409.893 C 186.102 411.336, 185.545 412.790, 185.545 416 C 185.545 419.210, 186.102 420.664, 187.884 422.107 C 190.122 423.920, 192.894 424, 253.156 424 L 316.091 424 318.545 421.545 C 320.093 419.998, 321 417.948, 321 416 C 321 414.052, 320.093 412.002, 318.545 410.455 L 316.091 408 253.156 408 C 192.894 408, 190.122 408.080, 187.884 409.893 M 187.455 433.455 C 184.297 436.612, 184.341 440.063, 187.589 443.923 L 190.178 447 253.134 447 L 316.091 447 318.545 444.545 C 321.582 441.509, 321.733 437.201, 318.927 433.635 L 316.855 431 253.382 431 L 189.909 431 187.455 433.455 M 204.756 465.500 L 208.439 476 253.094 476 L 297.749 476 300.807 467.250 C 302.489 462.438, 304.169 457.712, 304.540 456.750 C 305.177 455.097, 302.325 455, 253.144 455 L 201.073 455 204.756 465.500" stroke="none" fill="#f9f9f9" fill-rule="evenodd"/></svg>