<?xml version="1.0" standalone="no"?>
<!DOCTYPE svg PUBLIC "-//W3C//DTD SVG 20010904//EN"
 "http://www.w3.org/TR/2001/REC-SVG-20010904/DTD/svg10.dtd">
<svg version="1.0" xmlns="http://www.w3.org/2000/svg"
 width="500.000000pt" height="500.000000pt" viewBox="0 0 500.000000 500.000000"
 preserveAspectRatio="xMidYMid meet">

<g transform="translate(0.000000,500.000000) scale(0.100000,-0.100000)"
fill="#000000" stroke="none">
<path d="M2165 4804 c-154 -13 -334 -54 -455 -106 -73 -31 -92 -41 -159 -80
-34 -21 -66 -38 -69 -38 -3 0 -29 -18 -58 -40 -29 -22 -56 -40 -59 -40 -3 0
-13 -8 -24 -17 -10 -10 -40 -36 -67 -58 -79 -66 -293 -285 -332 -342 -40 -56
-23 -45 71 52 51 52 96 95 99 95 3 0 23 16 44 35 21 19 42 35 46 35 4 0 17 8
27 18 32 28 50 42 55 42 3 0 29 15 58 34 86 54 251 132 361 170 198 68 438 96
642 74 50 -5 97 -10 105 -10 8 0 20 -5 27 -10 7 -5 16 -7 21 -4 5 3 24 1 43
-5 19 -6 57 -16 84 -24 28 -7 75 -23 105 -35 30 -12 68 -26 84 -31 16 -5 46
-19 65 -32 20 -13 47 -28 61 -32 32 -9 186 -111 202 -133 7 -9 31 -30 53 -47
22 -16 41 -32 43 -36 2 -4 28 -32 58 -62 30 -31 54 -59 54 -64 0 -4 9 -14 20
-21 11 -7 20 -18 20 -26 0 -8 7 -16 15 -20 8 -3 15 -10 15 -16 0 -6 11 -26 24
-43 67 -90 137 -248 182 -412 26 -92 28 -115 29 -280 0 -177 -6 -228 -42 -355
-47 -169 -126 -319 -222 -424 -67 -72 -203 -196 -217 -196 -3 0 -23 -13 -43
-28 -20 -15 -58 -39 -86 -52 -27 -13 -59 -27 -69 -33 -92 -45 -202 -68 -326
-68 -91 1 -125 5 -200 26 -94 26 -261 128 -331 202 -83 88 -159 204 -159 242
0 6 -4 11 -9 11 -5 0 -12 10 -15 23 -30 106 -37 143 -37 217 0 121 34 242 93
329 34 51 108 130 121 131 5 0 22 9 37 20 77 55 222 47 285 -15 45 -46 78
-136 69 -189 -7 -44 -30 -86 -47 -86 -5 0 -29 -16 -53 -35 -122 -100 -116
-293 13 -421 73 -71 212 -106 337 -83 132 24 189 55 299 161 61 60 147 175
147 197 0 5 11 33 24 62 32 73 39 91 42 109 2 8 8 33 14 55 15 54 21 255 10
337 -10 73 -31 146 -65 223 -12 28 -28 65 -36 83 -8 17 -17 32 -21 32 -5 0 -8
5 -8 11 0 17 -126 169 -162 195 -18 14 -36 31 -40 39 -11 18 -142 105 -159
105 -8 0 -29 9 -47 20 -35 21 -102 48 -137 55 -11 2 -36 8 -55 15 -19 6 -50
13 -69 16 -19 2 -52 9 -75 14 -55 13 -228 12 -302 -1 -83 -14 -185 -39 -209
-49 -11 -5 -56 -23 -100 -41 -44 -18 -92 -40 -107 -51 -14 -10 -29 -18 -33
-18 -4 0 -30 -16 -56 -35 -27 -19 -52 -35 -55 -35 -17 0 -241 -194 -283 -244
-9 -11 -34 -40 -57 -65 -82 -92 -181 -257 -244 -406 -25 -60 -58 -179 -66
-235 -2 -19 -6 -44 -9 -56 -13 -58 -16 -240 -6 -338 27 -250 89 -448 200 -641
34 -58 84 -129 98 -138 7 -4 13 -12 13 -18 0 -10 65 -82 150 -166 61 -60 355
-260 402 -274 17 -4 42 -16 55 -25 14 -9 37 -20 52 -24 14 -5 51 -18 81 -30
30 -12 78 -28 105 -37 28 -8 57 -18 65 -21 8 -2 22 -6 30 -8 8 -1 44 -9 80
-18 36 -8 83 -17 105 -20 22 -3 69 -10 105 -16 97 -14 410 -5 500 15 41 9 83
18 94 20 83 18 303 114 378 167 14 10 29 18 32 18 4 0 31 18 61 40 30 22 59
40 64 40 6 0 15 9 21 20 6 11 15 20 20 20 5 0 20 10 33 23 13 12 47 42 76 67
82 71 134 122 164 161 35 47 35 62 -1 24 -35 -37 -110 -99 -126 -104 -6 -2
-13 -7 -16 -11 -6 -9 -138 -100 -145 -100 -2 0 -29 -16 -59 -35 -30 -19 -58
-35 -61 -35 -3 0 -43 -17 -88 -39 -107 -50 -245 -94 -382 -122 -126 -25 -388
-31 -485 -10 -30 6 -68 13 -85 16 -105 16 -271 71 -370 123 -204 106 -250 139
-395 282 -113 111 -177 194 -234 305 -12 22 -23 42 -27 45 -5 5 -30 59 -48
105 -5 11 -13 31 -20 45 -11 24 -23 65 -58 200 -24 93 -24 365 1 475 22 97 53
200 72 237 8 14 14 33 14 41 0 30 162 261 227 324 180 175 339 259 583 309
100 20 316 -6 388 -47 18 -10 39 -19 46 -19 7 0 41 -18 75 -40 130 -84 257
-245 314 -400 27 -73 47 -187 42 -238 -10 -101 -16 -135 -30 -162 -8 -16 -15
-35 -15 -42 0 -28 -122 -195 -167 -230 -95 -72 -201 -91 -278 -49 -89 48 -135
119 -135 209 0 46 35 98 80 120 38 18 77 68 96 119 41 116 -21 280 -134 351
-112 70 -308 65 -457 -12 -37 -19 -131 -107 -171 -161 -41 -55 -109 -166 -117
-190 -3 -11 -13 -40 -23 -65 -34 -92 -43 -161 -40 -320 3 -135 6 -165 29 -231
82 -240 196 -392 392 -522 108 -71 168 -97 305 -133 122 -32 181 -39 315 -38
137 2 203 13 330 56 96 32 152 58 225 102 25 15 53 29 63 33 9 3 17 9 17 14 0
5 5 9 11 9 20 0 213 163 294 247 77 81 275 363 275 391 0 8 8 31 19 51 23 45
47 107 57 146 4 17 9 35 10 40 41 129 55 403 30 560 -29 176 -77 347 -121 432
-8 15 -15 34 -15 41 0 6 -3 12 -8 12 -4 0 -15 17 -24 38 -73 160 -272 379
-456 504 -95 64 -263 157 -308 171 -11 3 -44 15 -74 27 -50 19 -85 31 -175 60
-54 17 -268 59 -335 65 -81 8 -282 13 -335 9z"/>
<path d="M3930 1900 c-12 -17 -20 -33 -17 -36 3 -3 15 9 27 26 12 17 20 33 17
36 -3 3 -15 -9 -27 -26z"/>
<path d="M1892 1140 c-57 -23 -52 -112 8 -143 33 -16 79 -17 648 -15 l614 3
24 28 c31 37 31 81 -1 112 l-24 25 -623 -1 c-348 0 -633 -4 -646 -9z"/>
<path d="M1873 894 c-21 -21 -24 -32 -19 -62 12 -76 -28 -72 681 -72 l634 0
20 26 c28 36 27 79 -4 109 l-24 25 -631 0 -631 0 -26 -26z"/>
<path d="M1910 687 c-63 -22 -78 -91 -28 -137 21 -20 33 -20 650 -20 l629 0
24 25 c32 31 32 75 1 112 l-24 28 -609 2 c-454 2 -617 -1 -643 -10z"/>
<path d="M2048 345 l36 -105 447 0 446 0 31 88 c17 48 34 95 37 105 7 16 -22
17 -514 17 l-520 0 37 -105z"/>
</g>
</svg>
